<?xml version="1.0" standalone="no"?><!DOCTYPE svg PUBLIC "-//W3C//DTD SVG 1.1//EN" "http://www.w3.org/Graphics/SVG/1.1/DTD/svg11.dtd"><svg t="1759152857214" class="icon" viewBox="0 0 1024 1024" version="1.1" xmlns="http://www.w3.org/2000/svg" p-id="17677" width="128" height="128" xmlns:xlink="http://www.w3.org/1999/xlink"><path d="M844.1 128H340c-28.4-0.1-51.6 22.8-51.9 51.2v107.5H179.8c-28.4-0.1-51.6 22.8-51.9 51.2V844c0.3 28.4 23.5 51.3 51.9 51.2h504c28.4 0.1 51.6-22.8 51.9-51.2V737.1H844c28.4 0.1 51.6-22.8 51.9-51.2V179.6c-0.3-28.4-23.5-51.3-51.9-51.2l0.1-0.4z m-166 710.8H185.3V344.1h492.8v494.7z m160-158.9H735.7V338.4c-0.3-28.4-23.5-51.3-51.9-51.2h-338v-102h492.8l-0.5 494.7z" fill="#2b2d30" p-id="17678"></path></svg>
