<svg  class="icon" viewBox="0 0 1024 1024" version="1.1" xmlns="http://www.w3.org/2000/svg" id="mx_n_1759153971469" width="128" height="128"><path d="M93.866667 1024A94.72 94.72 0 0 1 0 930.133333V341.333333a87.722667 87.722667 0 0 1 93.866667-85.333333H256V93.866667A87.722667 87.722667 0 0 1 341.333333 0h588.8A94.72 94.72 0 0 1 1024 93.866667V682.666667a87.722667 87.722667 0 0 1-93.866667 85.333333H768v162.133333A87.722667 87.722667 0 0 1 682.666667 1024z m580.266666-102.4V349.866667H102.4v571.733333h571.733333z m247.466667-247.466667V102.4H349.866667V256H682.666667a80.64 80.64 0 0 1 85.333333 85.333333v324.266667h153.6z" fill="#2b2d30"/></svg>
